<svg width="24" height="25" fill="none" xmlns="http://www.w3.org/2000/svg"><path d="M11.99 2.5c.805 0 1.475.652 1.475 1.456 0 .087-.008.173-.022.256a6.364 6.364 0 014.928 6.2v1.97c-.006 1.405-.013 3.199 1.192 3.73.987.436.985 1.622.983 2.368v.09H3.455v-.09c-.002-.746-.005-1.932.983-2.368 1.204-.531 1.197-2.325 1.191-3.73v-1.97c0-3.02 2.105-5.55 4.928-6.2A1.456 1.456 0 0111.99 2.5z" fill="#AFB3BB"/><path fill-rule="evenodd" clip-rule="evenodd" d="M8.468 19.666a3.64 3.64 0 007.065 0H8.468z" fill="#AFB3BB"/></svg>