<?xml version="1.0" encoding="utf-8"?><svg xmlns="http://www.w3.org/2000/svg" xmlns:xlink="http://www.w3.org/1999/xlink"><symbol viewBox="0 0 16 16" id="icon-arrow-down" xmlns="http://www.w3.org/2000/svg"><path d="M3 6l5 5M13 6l-5 5" stroke-width="2" stroke-linecap="round" stroke-linejoin="round"/></symbol><symbol viewBox="0 0 12 10" id="icon-check" xmlns="http://www.w3.org/2000/svg"><path d="M1.5 6l3 3 6-8" stroke-width="2" stroke-linecap="round" stroke-linejoin="round"/></symbol><symbol viewBox="0 0 16 16" id="icon-close-small" xmlns="http://www.w3.org/2000/svg"><path d="M3 3l10 10M13 3L3 13" stroke-width="2" stroke-linecap="round" stroke-linejoin="round"/></symbol><symbol viewBox="0 0 16 16" id="icon-comments" xmlns="http://www.w3.org/2000/svg"><path fill-rule="evenodd" clip-rule="evenodd" d="M6.5 1A5.5 5.5 0 005 11.793V15l3.6-3h.9a5.5 5.5 0 100-11h-3z"/></symbol><symbol viewBox="0 0 24 25" id="icon-favourite" xmlns="http://www.w3.org/2000/svg"><path d="M6.659 4.29c.422-.506.994-.79 1.591-.79h7.5c.597 0 1.169.284 1.591.79.422.507.659 1.194.659 1.91v14.4c0 .337-.157.646-.407.8a.647.647 0 01-.779-.068L12 17.206l-4.814 4.126a.647.647 0 01-.78.068c-.249-.154-.406-.463-.406-.8V6.2c0-.716.237-1.403.659-1.91z"/></symbol><symbol viewBox="0 0 16 16" id="icon-likes" xmlns="http://www.w3.org/2000/svg"><path d="M11.483 1.333c-1.907 0-3.117 2.098-3.483 2.86-.367-.762-1.577-2.86-3.484-2.86-2.383 0-3.85 2.096-3.85 4 0 1.905 1.017 3.48 2.667 5.005 1.32 1.219 3.75 3.63 4.667 4.329.916-.699 3.347-3.11 4.666-4.33 1.65-1.523 2.667-3.099 2.667-5.004 0-1.904-1.466-4-3.85-4z"/></symbol><symbol viewBox="0 0 24 25" id="icon-notifacation" xmlns="http://www.w3.org/2000/svg"><path d="M11.99 2.5c.805 0 1.475.652 1.475 1.456 0 .087-.008.173-.022.256a6.364 6.364 0 014.928 6.2v1.97c-.006 1.405-.013 3.199 1.192 3.73.987.436.985 1.622.983 2.368v.09H3.455v-.09c-.002-.746-.005-1.932.983-2.368 1.204-.531 1.197-2.325 1.191-3.73v-1.97c0-3.02 2.105-5.55 4.928-6.2A1.456 1.456 0 0111.99 2.5z"/><path fill-rule="evenodd" clip-rule="evenodd" d="M8.468 19.666a3.64 3.64 0 007.065 0H8.468z"/></symbol><symbol viewBox="0 0 16 16" id="icon-toggle-filter" xmlns="http://www.w3.org/2000/svg"><path stroke-width="2" stroke-linecap="round" stroke-linejoin="round" d="M1 5h2M1 11h4M11 5h4M13 11h2"/><circle cx="5" cy="5" r="2" stroke-width="2"/><circle cx="11" cy="11" r="2" stroke-width="2"/></symbol></svg>